<svg xmlns="http://www.w3.org/2000/svg" viewBox="0 0 64 64" fill="none" stroke="currentColor" stroke-width="2" stroke-linecap="round" stroke-linejoin="round">
  <!-- Rooster / Poultry Silhouette Line Art -->
  <path d="M22 46c0-6 4-12 12-14 3-1 6-4 7-8 1-3 0-6-2-8 3 1 7 4 8 8 1 3 0 7-3 10 5 1 9 5 9 12H22z" fill="#fef8eb" stroke="#d49a24"/>
  <path d="M41 16c1-2 3-3 5-3s3 2 2 4c2-1 4 0 4 2 0 2-2 3-3 3" stroke="#b88219"/>
  <path d="M38 23h.01" stroke="#d49a24" stroke-width="3"/>
  <path d="M43 25l4 2-4 2" stroke="#d49a24"/>
  <path d="M12 46c4-12 12-18 20-18" stroke="#d49a24" stroke-dasharray="2 3"/>
  <path d="M10 38c6 1 10 5 12 8" stroke="#d49a24"/>
  <path d="M28 46v10M36 46v10M25 56h6M33 56h6" stroke="#0e1726"/>
  <circle cx="48" cy="46" r="3" fill="#d49a24" stroke="none"/>
  <circle cx="54" cy="44" r="2" fill="#d49a24" stroke="none"/>
</svg>
